# xmcd
#
# Track frame offsets:
#	150
#	14085
#	30232
#	52267
#	70132
#	84867
#	105562
#	125575
#	143860
#	159862
#	173799
#	194090
#	210765
#
# Disc length: 3100 seconds
# Revision: 0
# Processed by: cddbd v1.5.2PL0 Copyright (c) Steve Scherf et al.
# Submitted via: dBpowerAMP V12.0
#
DISCID=ab0c1a0d
DTITLE=Andy Owens - A Melody For You
DYEAR=2007
DGENRE=Bluegrass
TTITLE0=Coffee's Callin'
TTITLE1=Don't Give In
TTITLE2=No Man's Land
TTITLE3=This Here Mandolin
TTITLE4=A Melody for You
TTITLE5=Free
TTITLE6=Sailing to Philadelphia
TTITLE7=Life Gets in the Way
TTITLE8=The Secret
TTITLE9=Back in Caroline
TTITLE10=Texas 1947
TTITLE11=Black Magic Gun
TTITLE12=Wildcat Ridge
EXTD=
EXTT0=
EXTT1=
EXTT2=
EXTT3=
EXTT4=
EXTT5=
EXTT6=
EXTT7=
EXTT8=
EXTT9=
EXTT10=
EXTT11=
EXTT12=
PLAYORDER=
